<svg xmlns="http://www.w3.org/2000/svg" width="500" height="400" viewBox="0 0 500 400">
  <style>
    .paper { fill: #ffffff; stroke: #e0e0e0; stroke-width: 2; }
    .heading { fill: #4568dc; }
    .text-line { fill: #333333; }
    .text-highlight { fill: #6a82fb; }
    .bar-bg { fill: #f0f0f0; rx: 3; ry: 3; }
    .bar-fg { fill: #4568dc; rx: 3; ry: 3; }
    .chart-line { stroke: #4568dc; stroke-width: 2; fill: none; }
    .chart-dot { fill: #ffffff; stroke: #4568dc; stroke-width: 2; }
    .chart-area { fill: rgba(106, 130, 251, 0.15); }
    .circle-data { fill: none; stroke: #6a82fb; stroke-width: 2; }
    .circle-inner { fill: rgba(106, 130, 251, 0.1); }
    .checkmark { stroke: #4568dc; stroke-width: 3; stroke-linecap: round; fill: none; }
    .x-mark { stroke: #ff6b6b; stroke-width: 3; stroke-linecap: round; }
  </style>
  
  <!-- Analyysiasiakirja -->
  <rect class="paper" x="10" y="10" width="480" height="380" rx="8" />
  
  <!-- Otsikko -->
  <rect class="heading" x="40" y="40" width="200" height="10" rx="2" />
  <rect class="heading" x="40" y="60" width="150" height="10" rx="2" />
  
  <!-- Tekstisisältö -->
  <rect class="text-line" x="40" y="90" width="400" height="4" rx="2" />
  <rect class="text-line" x="40" y="100" width="380" height="4" rx="2" />
  <rect class="text-line" x="40" y="110" width="420" height="4" rx="2" />
  <rect class="text-highlight" x="40" y="120" width="180" height="4" rx="2" />
  <rect class="text-line" x="230" y="120" width="210" height="4" rx="2" />
  
  <!-- Osio 1: Hinta-analyysi -->
  <rect class="heading" x="40" y="150" width="120" height="8" rx="2" />
  
  <!-- Hintapalkki -->
  <rect class="bar-bg" x="40" y="170" width="400" height="20" />
  <rect class="bar-fg" x="40" y="170" width="280" height="20" />
  
  <rect class="text-line" x="40" y="200" width="400" height="4" rx="2" />
  <rect class="text-line" x="40" y="210" width="380" height="4" rx="2" />
  <rect class="text-highlight" x="40" y="220" width="160" height="4" rx="2" />
  
  <!-- Osio 2: Sijainti -->
  <rect class="heading" x="40" y="250" width="100" height="8" rx="2" />
  
  <!-- Pisteytysympyrät -->
  <g transform="translate(60, 280)">
    <circle class="circle-data" cx="0" cy="0" r="15" />
    <circle class="circle-inner" cx="0" cy="0" r="15" />
    <path class="checkmark" d="M-7,0 L-2,5 L7,-5" />
  </g>
  
  <g transform="translate(120, 280)">
    <circle class="circle-data" cx="0" cy="0" r="15" />
    <circle class="circle-inner" cx="0" cy="0" r="15" />
    <path class="checkmark" d="M-7,0 L-2,5 L7,-5" />
  </g>
  
  <g transform="translate(180, 280)">
    <circle class="circle-data" cx="0" cy="0" r="15" />
    <circle class="circle-inner" cx="0" cy="0" r="15" />
    <line class="x-mark" x1="-5" y1="-5" x2="5" y2="5" />
    <line class="x-mark" x1="5" y1="-5" x2="-5" y2="5" />
  </g>
  
  <!-- Tekstiä -->
  <rect class="text-line" x="240" y="270" width="200" height="4" rx="2" />
  <rect class="text-line" x="240" y="280" width="170" height="4" rx="2" />
  <rect class="text-line" x="240" y="290" width="180" height="4" rx="2" />
  
  <!-- Osio 3: Kaavio -->
  <g transform="translate(40, 330)">
    <rect class="bar-bg" x="0" y="0" width="400" height="1" />
    <rect class="bar-bg" x="0" y="0" width="1" height="50" />
    
    <path class="chart-line" d="M0,50 L80,30 L160,40 L240,15 L320,25 L400,5" />
    <path class="chart-area" d="M0,50 L80,30 L160,40 L240,15 L320,25 L400,5 L400,50 Z" />
    
    <circle class="chart-dot" cx="0" cy="50" r="4" />
    <circle class="chart-dot" cx="80" cy="30" r="4" />
    <circle class="chart-dot" cx="160" cy="40" r="4" />
    <circle class="chart-dot" cx="240" cy="15" r="4" />
    <circle class="chart-dot" cx="320" cy="25" r="4" />
    <circle class="chart-dot" cx="400" cy="5" r="4" />
  </g>
</svg> 