<svg xmlns="http://www.w3.org/2000/svg" width="600" height="400" viewBox="0 0 600 400">
  <style>
    .building { fill: #4568dc; }
    .window { fill: #ffffff; }
    .roof { fill: #6a82fb; }
    .background { fill: #e6eefb; }
    .chart-line { stroke: #4568dc; stroke-width: 3; fill: none; }
    .chart-dot { fill: #6a82fb; }
    .chart-area { fill: rgba(106, 130, 251, 0.2); }
    .document { fill: #ffffff; stroke: #4568dc; stroke-width: 2; }
    .document-line { stroke: #4568dc; stroke-width: 2; }
    .magnify { fill: none; stroke: #4568dc; stroke-width: 3; }
    .magnify-handle { stroke: #4568dc; stroke-width: 3; }
  </style>
  
  <!-- Tausta -->
  <rect class="background" x="0" y="0" width="600" height="400" rx="20" />
  
  <!-- Talo -->
  <g transform="translate(50, 120)">
    <path class="roof" d="M0,80 L100,20 L200,80 Z" />
    <rect class="building" x="20" y="80" width="160" height="150" />
    <rect class="window" x="45" y="110" width="30" height="40" rx="2" />
    <rect class="window" x="125" y="110" width="30" height="40" rx="2" />
    <rect class="window" x="45" y="170" width="30" height="40" rx="2" />
    <rect class="window" x="125" y="170" width="30" height="40" rx="2" />
    <rect class="window" x="85" y="140" width="30" height="60" rx="2" />
  </g>
  
  <!-- Analyysiasiakirja -->
  <g transform="translate(300, 100)">
    <rect class="document" x="0" y="0" width="120" height="160" rx="5" />
    <line class="document-line" x1="20" y1="30" x2="100" y2="30" />
    <line class="document-line" x1="20" y1="50" x2="100" y2="50" />
    <line class="document-line" x1="20" y1="70" x2="100" y2="70" />
    <line class="document-line" x1="20" y1="90" x2="80" y2="90" />
    <line class="document-line" x1="20" y1="110" x2="100" y2="110" />
    <line class="document-line" x1="20" y1="130" x2="60" y2="130" />
  </g>
  
  <!-- Suurennuslasi -->
  <g transform="translate(250, 180)">
    <circle class="magnify" cx="0" cy="0" r="40" />
    <line class="magnify-handle" x1="30" y1="30" x2="60" y2="60" />
  </g>
  
  <!-- Kaavio -->
  <g transform="translate(450, 150)">
    <path class="chart-line" d="M0,100 L20,80 L40,85 L60,60 L80,40 L100,30" />
    <path class="chart-area" d="M0,100 L20,80 L40,85 L60,60 L80,40 L100,30 L100,100 Z" />
    <circle class="chart-dot" cx="0" cy="100" r="4" />
    <circle class="chart-dot" cx="20" cy="80" r="4" />
    <circle class="chart-dot" cx="40" cy="85" r="4" />
    <circle class="chart-dot" cx="60" cy="60" r="4" />
    <circle class="chart-dot" cx="80" cy="40" r="4" />
    <circle class="chart-dot" cx="100" cy="30" r="4" />
  </g>
</svg> 